<?xml version="1.0" encoding="UTF-8" standalone="no"?>
<!DOCTYPE svg PUBLIC "-//W3C//DTD SVG 1.1//EN" "http://www.w3.org/Graphics/SVG/1.1/DTD/svg11.dtd">
<svg width="100%" height="100%" viewBox="0 0 422 430" version="1.1" xmlns="http://www.w3.org/2000/svg" xmlns:xlink="http://www.w3.org/1999/xlink" xml:space="preserve" xmlns:serif="http://www.serif.com/" style="fill-rule:evenodd;clip-rule:evenodd;stroke-linejoin:round;stroke-miterlimit:2;">
    <g transform="matrix(1,0,0,1,-558.299,-1799.04)">
        <g transform="matrix(4.16667,0,0,4.16667,0,0)">
            <clipPath id="_clip1">
                <path d="M133.991,482.324C133.991,510.243 156.624,532.877 184.544,532.877C212.463,532.877 235.097,510.243 235.097,482.324C235.097,454.405 212.463,431.77 184.544,431.77C156.624,431.77 133.991,454.405 133.991,482.324Z" clip-rule="nonzero"/>
            </clipPath>
            <g clip-path="url(#_clip1)">
                <g transform="matrix(0,-1,-1,0,184.544,431.771)">
                    <path d="M-50.552,-50.553C-78.472,-50.553 -101.106,-27.92 -101.106,0C-101.106,27.919 -78.472,50.552 -50.552,50.552C-22.633,50.552 0.001,27.919 0.001,0C0.001,-27.92 -22.633,-50.553 -50.552,-50.553" style="fill:rgb(244,124,80);"/>
                </g>
                <g transform="matrix(1,0,0,1,185.631,465.134)">
                    <path d="M0,34.38L-3.761,34.38C-10.361,34.38 -15.761,28.98 -15.761,22.38L-15.761,12C-15.761,5.4 -10.361,0 -3.761,0L0,0C6.6,0 12,5.4 12,12L12,22.38C12,28.98 6.6,34.38 0,34.38" style="fill:rgb(8,6,5);fill-rule:nonzero;"/>
                </g>
                <g transform="matrix(1,0,0,1,184.267,477.747)">
                    <path d="M0,20.173L-0.665,20.173C-3.167,20.173 -5.214,18.126 -5.214,15.624L-5.214,4.549C-5.214,2.047 -3.167,0 -0.665,0L0,0C2.502,0 4.549,2.047 4.549,4.549L4.549,15.624C4.549,18.126 2.502,20.173 0,20.173" style="fill:rgb(209,172,149);fill-rule:nonzero;"/>
                </g>
                <g transform="matrix(0,-1,-1,0,183.934,454.935)">
                    <path d="M-14.694,-14.694C-24.487,-14.694 -32.425,-8.114 -32.425,-0.001C-32.425,8.114 -24.487,14.694 -14.694,14.694C-4.901,14.694 3.038,8.114 3.038,-0.001C3.038,-8.114 -4.901,-14.694 -14.694,-14.694" style="fill:rgb(247,214,180);fill-rule:nonzero;"/>
                </g>
                <g transform="matrix(1,0,0,1,169.748,474.917)">
                    <path d="M0,-9.918C-0.384,-9.673 -2.33,-8.542 -2.897,-7.131C-3.067,-6.711 -3.412,-5.689 -3.196,-4.441C-2.797,-2.13 -0.142,-0.169 0.159,0" style="fill:rgb(247,214,180);fill-rule:nonzero;"/>
                </g>
                <g transform="matrix(1,0,0,1,183.934,487.361)">
                    <path d="M0,-35.463C8.115,-35.463 14.693,-27.525 14.693,-17.732C14.693,-7.939 8.115,0 0,0L0,-35.463Z" style="fill:rgb(233,191,165);fill-rule:nonzero;"/>
                </g>
                <g transform="matrix(1,0,0,1,198.185,474.36)">
                    <path d="M0,-9.064C0.39,-8.882 2.126,-8.263 2.784,-6.873C3.617,-5.113 2.962,-3.442 2.784,-2.988C2.159,-1.392 0.452,-0.273 0,0" style="fill:rgb(233,191,165);fill-rule:nonzero;"/>
                </g>
                <g transform="matrix(1,0,0,1,189.264,458.297)">
                    <path d="M0,-1.369C-0.545,1.1 -4.578,2.072 -6.625,2.566C-10.708,3.551 -11.963,2.505 -15.042,3.86C-17.746,5.052 -19.394,6.595 -19.394,6.185C-19.394,3.014 -14.823,-3.631 -10.709,-5.304C-10.063,-5.566 -4.054,-7.964 -0.556,-5.237C0.408,-4.486 0.28,-2.64 0,-1.369" style="fill:rgb(8,6,5);fill-rule:nonzero;"/>
                </g>
                <g transform="matrix(1,0,0,1,189.441,460.707)">
                    <path d="M0,-3.388C0.446,-2.313 1.141,-0.691 2.774,0.714C4.261,1.991 8.557,5.123 8.744,4.589C9.297,3.001 5.118,-3.653 3.658,-5.274C2.563,-6.49 -1.821,-8.511 -2.183,-8.458C-3.127,-8.322 -0.105,-3.64 0,-3.388" style="fill:rgb(8,6,5);fill-rule:nonzero;"/>
                </g>
                <g transform="matrix(1,0,0,1,161.609,507)">
                    <path d="M0,19.237C-0.702,16.322 0.331,-8.438 6.71,-11.448C11.446,-13.682 16.213,-15.043 22.441,-15.075C28.393,-15.104 33.047,-13.891 38.146,-12.01C45.376,-9.344 46.003,17.162 46.054,18.644C46.598,34.341 1.792,26.683 0,19.237" style="fill:rgb(254,211,114);"/>
                </g>
                <g transform="matrix(-0.82391,0.56672,0.56672,0.82391,218.443,524.571)">
                    <path d="M10.063,-46.587C5.142,-43.237 1.545,-39.813 -1.456,-35.502C-6.212,-28.668 8.801,-5.123 10.063,-3.98C15.761,1.183 23.768,-3.23 32.493,-10.136L10.063,-46.587Z" style="fill:rgb(214,172,78);"/>
                </g>
                <g transform="matrix(0,-1,-1,0,183.28,475.334)">
                    <path d="M-4.098,-4.955C-4.865,-4.955 -5.441,-2.757 -5.441,-0.257C-5.441,2.243 -4.865,4.098 -4.098,4.098C-3.789,4.098 -4.021,2.071 -4.021,-0.429C-4.021,-2.929 -3.612,-4.955 -4.098,-4.955" style="fill:white;"/>
                </g>
            </g>
        </g>
    </g>
</svg>
